# xmcd
#
# Track frame offsets:
#	150
#	12932
#	23403
#	33835
#	43438
#	54338
#	66584
#	78178
#	90599
#	102203
#	114441
#	128494
#	142042
#	151447
#	161280
#	171955
#
# Disc length: 2508 seconds
#
# Revision: 0
# Processed by: cddbd v1.5.2PL0 Copyright (c) Steve Scherf et al.
# Submitted via: EasyCDDAExtractor 2010.3.0.0
#
DISCID=c309ca10
DTITLE=Webb June - June Webb Then...With A Hint Of Now
DYEAR=1900
DGENRE=
TTITLE0=Mansion On The Hill
TTITLE1=I Was Just Meant) To Be Lonely
TTITLE2=Conscience (Set Me Free)
TTITLE3=Love Has Come My Way
TTITLE4=Friendly Enemy
TTITLE5=You Take The Table (I'll Take The Chairs)
TTITLE6=I Wonder If You Know
TTITLE7=I'm So Lonesome I Could Cry
TTITLE8=Crewcut Romeo
TTITLE9=Final Affair
TTITLE10=Sweeter Than The Flowers
TTITLE11=I Cried Again
TTITLE12=Looking Glass
TTITLE13=Hello Old Broken Heart
TTITLE14=Afraid
TTITLE15=Blue Darlin' (2010)
EXTD=
EXTT0=
EXTT1=
EXTT2=
EXTT3=
EXTT4=
EXTT5=
EXTT6=
EXTT7=
EXTT8=
EXTT9=
EXTT10=
EXTT11=
EXTT12=
EXTT13=
EXTT14=
EXTT15=
PLAYORDER=
